:SAMPLES-PER-SECOND 30
:FULLY-SPECIFIED
:DEGREES
263
root  -2.02038 41.011 -1.07781 3.02335 -81.0142 -0.585968
RightUpLeg  1.11942 -1.39044 0.473815
RightLeg  -7.63575 -31.5446 6.14238
RightFoot  2.31775 0.0801369 -0.536771
RightToes  -3.10678e-008 1.75238e-005 3.56266e-009
Spine  11.9654 1.89179 -8.28889
Spine1  -7.80218 0.284858 9.75884
HEad  0.741257 -1.14644 1.53885
LeftShoulder1  2.12045 -3.0967 -25.9857
LeftArm  -11.4163 4.35851 -47.0164
LeftForeArm  52.8548 -76.035 -43.2129
LeftHand  -0.572946 -3.6284 7.63175
RightShoulder  2.54327 4.30441 26.568
RightArm  -3.74947 -12.7702 39.4623
RightForeArm  33.783 70.7531 30.2307
RightHand  -0.351457 8.07838 -3.3977
LeftUpLeg  -2.75443 1.02667 3.48694
LeftLeg  -3.32858 9.22018 -1.21439
LeftFoot  3.85906 0.507571 -3.97963
LeftToes  4.7643e-008 1.47522e-008 1.32869e-009
264
root  -2.29402 41.0199 -0.959466 2.81641 -81.8268 -0.637268
RightUpLeg  1.94107 -1.284 0.462159
RightLeg  -7.89969 -30.8561 5.94108
RightFoot  2.22681 0.0438135 -0.240031
RightToes  -3.10678e-008 1.75238e-005 3.56266e-009
Spine  10.4348 1.81366 -8.58653
Spine1  -8.34703 0.304679 10.1573
HEad  4.39153 -2.0909 1.30154
LeftShoulder1  2.06801 -2.91391 -26.0846
LeftArm  -10.8802 7.74826 -48.0367
LeftForeArm  55.3502 -76.6043 -45.5867
LeftHand  -0.569833 -3.72483 7.51759
RightShoulder  2.35536 3.84977 26.0185
RightArm  -2.72452 -13.1669 40.1654
RightForeArm  37.7294 72.6586 34.243
RightHand  -0.384638 8.13346 -3.67009
LeftUpLeg  -1.87204 1.0977 3.38919
LeftLeg  -3.30812 9.84377 -1.22586
LeftFoot  3.27541 0.476608 -3.8697
LeftToes  4.7643e-008 1.47522e-008 1.32869e-009
265
root  -2.56436 41.0234 -0.860453 3.19958 -82.6814 -1.31848
RightUpLeg  2.66703 -1.24979 0.495499
RightLeg  -7.84647 -30.0562 5.68343
RightFoot  2.01359 0.00468774 0.0770553
RightToes  -3.10678e-008 1.75238e-005 3.56266e-009
Spine  9.07944 1.63556 -8.47842
Spine1  -9.20148 0.333133 9.90669
HEad  8.01089 -2.76705 1.37595
LeftShoulder1  2.05663 -2.91398 -25.8977
LeftArm  -10.0478 11.4392 -48.6987
LeftForeArm  58.2924 -77.1899 -48.4332
LeftHand  -0.573163 -3.72364 7.55897
RightShoulder  2.27723 3.66816 25.7151
RightArm  -1.82932 -13.6253 40.7034
RightForeArm  42.5145 74.4664 39.2446
RightHand  -0.364796 8.15452 -3.49529
LeftUpLeg  -1.06063 1.40423 3.47164
LeftLeg  -3.07978 10.3471 -1.35993
LeftFoot  2.60222 0.41838 -3.55047
LeftToes  4.7643e-008 1.47522e-008 1.32869e-009
266
root  -2.8448 41.0219 -0.739186 3.79175 -83.078 -2.24179
RightUpLeg  3.57614 -1.47713 0.377351
RightLeg  -8.0043 -29.3649 5.79909
RightFoot  1.74214 -0.0160691 0.243684
RightToes  -3.10678e-008 1.75238e-005 3.56266e-009
Spine  7.3786 1.30509 -8.28985
Spine1  -9.03699 0.126038 9.79681
HEad  10.7403 -3.1554 1.76531
LeftShoulder1  1.91018 -2.48443 -25.7438
LeftArm  -8.90658 14.4246 -49.2493
LeftForeArm  62.3141 -77.9371 -52.8122
LeftHand  -0.527638 -3.35466 7.25539
RightShoulder  2.07794 3.18718 25.0058
RightArm  -1.18114 -13.6837 41.7962
RightForeArm  48.8351 76.1893 45.656
RightHand  -0.299125 8.24828 -2.91888
LeftUpLeg  -0.273014 1.56094 3.47149
LeftLeg  -2.82634 10.5203 -1.33082
LeftFoot  1.94767 0.386486 -3.42064
LeftToes  4.7643e-008 1.47522e-008 1.32869e-009
267
root  -3.0821 41.02 -0.638879 3.86679 -83.4314 -2.68823
RightUpLeg  4.32472 -1.45946 0.37031
RightLeg  -7.91451 -29.0498 5.52474
RightFoot  1.52868 -0.0545116 0.575976
RightToes  -3.10678e-008 1.75238e-005 3.56266e-009
Spine  6.32427 1.0316 -7.9579
Spine1  -9.31727 0.000621643 9.33262
HEad  12.8253 -3.3892 1.74056
LeftShoulder1  1.82568 -2.22342 -25.7185
LeftArm  -8.74849 16.1636 -49.928
LeftForeArm  62.5871 -77.9333 -52.6598
LeftHand  -0.543058 -3.7422 7.16356
RightShoulder  2.0263 3.04594 24.8733
RightArm  -0.655081 -13.7 42.4166
RightForeArm  55.2103 77.4489 52.1081
RightHand  -0.293787 8.40704 -2.84702
LeftUpLeg  0.427028 1.63232 3.40222
LeftLeg  -2.46525 10.7679 -1.22735
LeftFoot  1.2964 0.386024 -3.55753
LeftToes  4.7643e-008 1.47522e-008 1.32869e-009
268
root  -3.29381 41.0145 -0.557273 3.27417 -83.6872 -2.51706
RightUpLeg  5.02482 -1.70915 0.18189
RightLeg  -7.62204 -28.5842 5.36809
RightFoot  1.18477 -0.0798853 0.800705
RightToes  -3.10678e-008 1.75238e-005 3.56266e-009
Spine  5.19473 0.872074 -7.67942
Spine1  -9.23949 -0.0291288 8.73658
HEad  14.4548 -4.27483 2.23467
LeftShoulder1  1.80983 -2.18984 -25.6227
LeftArm  -8.90688 16.9903 -50.3134
LeftForeArm  61.5866 -77.7399 -51.3392
LeftHand  -0.563315 -3.88973 7.31348
RightShoulder  1.91639 2.74368 24.6053
RightArm  -0.576918 -13.5845 43.1383
RightForeArm  60.0583 78.1426 56.7381
RightHand  -0.301936 8.54025 -2.89254
LeftUpLeg  1.24597 1.70097 3.30361
LeftLeg  -2.35567 10.919 -1.20716
LeftFoot  0.799119 0.384108 -3.65711
LeftToes  4.7643e-008 1.47522e-008 1.32869e-009
269
root  -3.48718 41.0123 -0.491886 3.17093 -84.0177 -2.75595
RightUpLeg  5.63501 -1.74693 0.147021
RightLeg  -7.46709 -28.227 5.14532
RightFoot  0.981902 -0.0971724 0.961964
RightToes  -3.10678e-008 1.75238e-005 3.56266e-009
Spine  4.40815 0.800267 -7.70794
Spine1  -9.4859 -0.0124468 8.53197
HEad  15.8532 -5.18643 2.68348
LeftShoulder1  1.72483 -1.9576 -25.4082
LeftArm  -8.9592 17.5028 -50.601
LeftForeArm  62.7594 -77.9086 -52.3089
LeftHand  -0.575183 -3.88921 7.45901
RightShoulder  1.98001 2.91295 24.7949
RightArm  -0.370231 -13.7425 42.9085
RightForeArm  63.7014 78.6267 61.0821
RightHand  -0.289276 8.17229 -2.84795
LeftUpLeg  2.07683 1.75547 3.24708
LeftLeg  -2.50252 11.1569 -1.20506
LeftFoot  0.49074 0.375836 -3.65663
LeftToes  4.7643e-008 1.47522e-008 1.32869e-009
270
root  -3.63043 41.0052 -0.437117 3.91049 -83.8098 -3.72855
RightUpLeg  6.05668 -1.8059 0.18011
RightLeg  -7.25483 -28.3151 5.06108
RightFoot  0.79103 -0.121573 1.19385
RightToes  -3.10678e-008 1.75238e-005 3.56266e-009
Spine  3.73076 0.697941 -7.88255
Spine1  -9.42542 -0.102841 8.80491
HEad  16.562 -6.17716 2.82775
LeftShoulder1  1.66236 -1.77897 -25.2878
LeftArm  -8.699 17.0981 -50.5068
LeftForeArm  63.3536 -78.0644 -53.5587
LeftHand  -0.624706 -3.89658 8.07388
RightShoulder  1.95023 2.85366 24.6038
RightArm  -0.59437 -13.6229 43.1412
RightForeArm  65.6499 78.8189 62.9211
RightHand  -0.357093 8.09321 -3.44268
LeftUpLeg  2.36383 1.81834 3.29531
LeftLeg  -2.13211 10.8423 -1.05516
LeftFoot  0.0726296 0.369161 -3.69806
LeftToes  4.7643e-008 1.47522e-008 1.32869e-009
271
root  -3.76201 41.0028 -0.391462 4.58984 -83.8484 -4.64221
RightUpLeg  6.41524 -1.71633 0.278811
RightLeg  -6.97482 -28.2578 4.79295
RightFoot  0.650225 -0.142148 1.39563
RightToes  -3.10678e-008 1.75238e-005 3.56266e-009
Spine  3.01581 0.75195 -8.10413
Spine1  -9.02373 -0.0675127 9.16235
HEad  16.7614 -7.28356 2.59953
LeftShoulder1  1.64646 -1.73193 -25.2647
LeftArm  -9.2843 16.1672 -50.8439
LeftForeArm  63.4882 -78.0574 -53.4031
LeftHand  -0.57859 -3.8582 7.52725
RightShoulder  1.89665 2.73302 24.3271
RightArm  -0.658448 -13.55 43.3447
RightForeArm  67.3217 78.9775 64.6406
RightHand  -0.34785 8.17543 -3.34674
LeftUpLeg  2.82429 1.98814 3.40557
LeftLeg  -2.08832 10.7143 -1.10051
LeftFoot  -0.12946 0.353109 -3.59388
LeftToes  4.7643e-008 1.47522e-008 1.32869e-009
272
root  -3.86176 41.0024 -0.348943 4.52924 -84.1855 -4.71899
RightUpLeg  6.44777 -1.75417 0.202028
RightLeg  -6.37105 -27.9022 4.41612
RightFoot  0.429343 -0.158602 1.56526
RightToes  -3.10678e-008 1.75238e-005 3.56266e-009
Spine  2.91027 0.832046 -8.37786
Spine1  -9.36151 0.0312875 9.3277
HEad  16.9447 -7.92838 2.70925
LeftShoulder1  1.63385 -1.74945 -24.9062
LeftArm  -9.58569 15.6977 -50.8712
LeftForeArm  62.8761 -77.9424 -52.5787
LeftHand  -0.525997 -3.7996 6.9072
RightShoulder  1.91776 2.77868 24.4469
RightArm  -0.638575 -13.6669 43.2129
RightForeArm  67.5343 79.0018 65.0095
RightHand  -0.367511 8.12516 -3.52454
LeftUpLeg  3.34213 1.96383 3.32982
LeftLeg  -2.40384 11.1596 -1.13953
LeftFoot  -0.190729 0.363922 -3.75068
LeftToes  4.7643e-008 1.47522e-008 1.32869e-009
273
root  -3.91827 41.0051 -0.296199 5.12057 -84.4766 -5.29102
RightUpLeg  6.52848 -1.7676 0.135798
RightLeg  -6.4389 -27.555 4.41727
RightFoot  0.5261 -0.162692 1.58004
RightToes  -3.10678e-008 1.75238e-005 3.56266e-009
Spine  2.49147 0.781398 -8.01794
Spine1  -8.7437 0.0014865 8.81601
HEad  16.3423 -8.41901 2.96858
LeftShoulder1  1.66241 -1.86305 -24.7696
LeftArm  -9.73467 14.6117 -50.5096
LeftForeArm  61.347 -77.7272 -51.3497
LeftHand  -0.496636 -3.51415 6.73131
RightShoulder  1.9356 2.79996 24.637
RightArm  -0.711098 -13.285 43.3556
RightForeArm  66.2697 78.8835 63.656
RightHand  -0.389702 8.20427 -3.69672
LeftUpLeg  3.59659 1.86613 3.22151
LeftLeg  -2.71641 11.6472 -1.12361
LeftFoot  -0.115822 0.372556 -3.81063
LeftToes  4.7643e-008 1.47522e-008 1.32869e-009
274
root  -3.89852 41.0137 -0.246825 5.45657 -85.4411 -5.50629
RightUpLeg  6.00887 -1.72055 -0.0241251
RightLeg  -5.7732 -26.6239 3.92548
RightFoot  0.555937 -0.171097 1.68032
RightToes  -3.10678e-008 1.75238e-005 3.56266e-009
Spine  2.69975 1.03667 -8.15827
Spine1  -8.63014 0.197652 9.17248
HEad  15.2781 -9.13878 2.75506
LeftShoulder1  1.75164 -2.03912 -25.4309
LeftArm  -9.49351 13.3591 -49.7435
LeftForeArm  60.0556 -77.5297 -50.2839
LeftHand  -0.525254 -3.38551 7.19705
RightShoulder  1.93811 2.86549 24.3442
RightArm  -0.685061 -13.3764 43.6214
RightForeArm  65.9206 78.8473 63.2409
RightHand  -0.35606 8.14416 -3.42313
LeftUpLeg  3.89368 1.70856 2.97715
LeftLeg  -3.44142 12.8674 -1.30517
LeftFoot  0.273246 0.356832 -3.52274
LeftToes  4.7643e-008 1.47522e-008 1.32869e-009
275
root  -3.80085 41.0226 -0.223934 7.83359 -85.9829 -7.64377
RightUpLeg  5.44725 -1.64065 -0.00849032
RightLeg  -5.56807 -26.1334 3.85746
RightFoot  0.775219 -0.170128 1.65412
RightToes  -3.10678e-008 1.75238e-005 3.56266e-009
Spine  3.32651 0.928676 -8.06377
Spine1  -8.50708 0.0345984 9.16365
HEad  13.9217 -10.3691 3.0439
LeftShoulder1  1.79302 -2.14468 -25.5792
LeftArm  -8.86333 11.3416 -49.7691
LeftForeArm  57.9355 -77.1212 -48.0281
LeftHand  -0.54801 -3.52077 7.3927
RightShoulder  1.94778 2.90894 24.2853
RightArm  -0.430397 -13.4367 43.759
RightForeArm  65.5298 78.8204 63.0903
RightHand  -0.348173 8.26257 -3.33265
LeftUpLeg  3.50255 1.67927 2.99106
LeftLeg  -3.41271 13.5808 -1.32825
LeftFoot  0.524591 0.338766 -3.2928
LeftToes  4.7643e-008 1.47522e-008 1.32869e-009
276
root  -3.61642 41.0319 -0.192851 10.9971 -86.6762 -10.507
RightUpLeg  4.67807 -1.60638 -0.0573995
RightLeg  -5.40074 -25.4875 3.83907
RightFoot  1.12935 -0.161421 1.54593
RightToes  -3.10678e-008 1.75238e-005 3.56266e-009
Spine  4.74594 0.774312 -7.83929
Spine1  -8.97521 -0.151349 8.90324
HEad  12.5128 -10.4765 3.39179
LeftShoulder1  1.89359 -2.46607 -25.5539
LeftArm  -8.3581 9.35416 -50.2161
LeftForeArm  57.0947 -76.9126 -46.9105
LeftHand  -0.563374 -3.6987 7.45701
RightShoulder  2.00181 3.00991 24.66
RightArm  -0.220375 -14.0644 43.4731
RightForeArm  66.199 78.8663 63.3432
RightHand  -0.34071 8.54463 -3.21417
LeftUpLeg  2.97985 1.57194 2.91621
LeftLeg  -3.52498 14.3739 -1.35991
LeftFoot  0.979887 0.299052 -2.82443
LeftToes  4.7643e-008 1.47522e-008 1.32869e-009
